# xmcd
#
# Track frame offsets: 
#        183
#        13955
#        23665
#        34220
#        47868
#        60295
#        71875
#        79913
#        92493
#        105215
#        113905
#        128118
#        136518
#        146110
#        156955
#        168065
#
# Disc length: 2462 seconds
#
# Revision: 2
# Processed by: cddbd v1.5.2PL0 Copyright (c) Steve Scherf et al.
# Submitted via: ExactAudioCopy v0.95a5
#
DISCID=cc099c10
DTITLE=Willie Nelson - Home Is Where You're Happy
DYEAR=1997
DGENRE=Country
TTITLE0=Home Is Where You're Happy
TTITLE1=Ashamed
TTITLE2=Blame It On The Times
TTITLE3=A Moment Is'nt Very Long
TTITLE4=Shelter Of Your Arms
TTITLE5=December Day
TTITLE6=Things To Remember
TTITLE7=Any Old Arms Won't Do
TTITLE8=I Just Don't Understand
TTITLE9=Why Are You Picking On Me
TTITLE10=Will You Remember Mine
TTITLE11=Slow Down Old World
TTITLE12=Building Heartaches
TTITLE13=Who Do I Know In Dallas
TTITLE14=I Don't Feel Anything
TTITLE15=I Let My Mind Wander
EXTD=
EXTT0=
EXTT1=
EXTT2=
EXTT3=
EXTT4=
EXTT5=
EXTT6=
EXTT7=
EXTT8=
EXTT9=
EXTT10=
EXTT11=
EXTT12=
EXTT13=
EXTT14=
EXTT15=
PLAYORDER=
